<?xml version="1.0" standalone="no"?><!DOCTYPE svg PUBLIC "-//W3C//DTD SVG 1.1//EN" "http://www.w3.org/Graphics/SVG/1.1/DTD/svg11.dtd"><svg t="1530866296395" class="icon" style="" viewBox="0 0 1024 1024" version="1.1" xmlns="http://www.w3.org/2000/svg" p-id="1193" xmlns:xlink="http://www.w3.org/1999/xlink" width="64" height="64"><defs><style type="text/css"></style></defs><path d="M895.469672 127.981836 127.941927 127.981836c-35.322483 0-63.956637 28.634154-63.956637 63.956637l0 511.693008c0 35.322483 28.634154 63.956637 63.956637 63.956637l127.921461 0 0 160.1597c0 0.048095 0.00921 0.093121 0.010233 0.141216 0.214894 17.477047 14.44192 31.581276 31.970132 31.581276 10.175757 0 19.234063-4.758374 25.091468-12.165064l180.350554-179.717128 402.182872 0c35.322483 0 63.956637-28.634154 63.956637-63.956637L959.425286 191.938474C959.426309 156.61599 930.792155 127.981836 895.469672 127.981836zM895.469672 671.904896c0 17.520025-14.202467 31.722492-31.722492 31.722492L456.955336 703.627389 319.824119 838.711993 319.824119 703.627389l-32.238238 0L159.66442 703.627389c-17.520025 0-31.722492-14.202467-31.722492-31.722492L127.941927 223.665059c0-17.520025 14.202467-31.722492 31.722492-31.722492l704.08276 0c17.520025 0 31.722492 14.202467 31.722492 31.722492L895.469672 671.904896z" p-id="1194" fill="#afafaf"></path><path d="M767.54821 352.101243c0 17.520025-14.202467 31.722492-31.722492 31.722492L287.585881 383.823736c-17.520025 0-31.722492-14.202467-31.722492-31.722492l0-0.515746c0-17.520025 14.202467-31.722492 31.722492-31.722492l448.239837 0c17.520025 0 31.722492 14.202467 31.722492 31.722492L767.54821 352.101243z" p-id="1195" fill="#afafaf"></path><path d="M639.627772 480.022705c0 17.520025-14.202467 31.722492-31.722492 31.722492L287.585881 511.745197c-17.520025 0-31.722492-14.202467-31.722492-31.722492l0-0.515746c0-17.520025 14.202467-31.722492 31.722492-31.722492l320.318376 0c17.520025 0 31.722492 14.202467 31.722492 31.722492L639.626749 480.022705z" p-id="1196" fill="#afafaf"></path></svg>