<?xml version="1.0" standalone="no"?><!DOCTYPE svg PUBLIC "-//W3C//DTD SVG 1.1//EN" "http://www.w3.org/Graphics/SVG/1.1/DTD/svg11.dtd"><svg t="1530093660346" class="icon" style="" viewBox="0 0 1024 1024" version="1.1" xmlns="http://www.w3.org/2000/svg" p-id="12051" xmlns:xlink="http://www.w3.org/1999/xlink" width="64" height="64"><defs><style type="text/css"></style></defs><path d="M863.7876 140.568503l-40.424688 0 0-12.006452c0-36.002982-29.319769-65.436338-65.146743-65.436338l-0.959861 0c-35.830043 0-65.145719 29.434379-65.145719 65.436338l0 12.006452L331.830059 140.568503l0-12.006452c0-36.002982-29.312606-65.436338-65.142649-65.436338l-0.991584 0c-35.831067 0-65.147766 29.434379-65.147766 65.436338l0 12.006452-40.333614 0c-35.831067 0-65.147766 29.463032-65.147766 65.413825l0 625.571638c0 36.004005 29.315676 65.436338 65.147766 65.436338l703.573153 0c35.827997 0 65.143673-29.433356 65.143673-65.436338L928.931273 205.983351C928.931273 170.031535 899.615597 140.568503 863.7876 140.568503L863.7876 140.568503 863.7876 140.568503zM718.168058 128.562051c0-21.639856 17.507746-39.260166 39.086204-39.260166l0.961908 0c21.548782 0 39.083134 17.620309 39.083134 39.260166l0 116.390847c0 21.63474-17.535375 39.259142-39.083134 39.259142l-0.961908 0c-21.578458 0-39.086204-17.624403-39.086204-39.259142L718.168058 128.562051 718.168058 128.562051 718.168058 128.562051zM226.610646 128.562051c0-21.639856 17.505699-39.260166 39.090297-39.260166l0.986467 0c21.524223 0 39.084157 17.620309 39.084157 39.260166l0 116.390847c0 21.63474-17.565051 39.259142-39.084157 39.259142l-0.986467 0c-21.584598 0-39.090297-17.624403-39.090297-39.259142L226.610646 128.562051 226.610646 128.562051 226.610646 128.562051zM863.7876 844.668659 160.214447 844.668659c-7.065929 0-13.030781-6.075369-13.030781-13.113669L147.183665 371.605459l729.637786 0 0 459.94953C876.815311 838.59329 870.855576 844.668659 863.7876 844.668659L863.7876 844.668659 863.7876 844.668659zM661.76649 702.842513" p-id="12052" fill="#ffffff"></path></svg>