<?xml version="1.0" standalone="no"?><!DOCTYPE svg PUBLIC "-//W3C//DTD SVG 1.1//EN" "http://www.w3.org/Graphics/SVG/1.1/DTD/svg11.dtd"><svg t="1530170483454" class="icon" style="" viewBox="0 0 1024 1024" version="1.1" xmlns="http://www.w3.org/2000/svg" p-id="5469" xmlns:xlink="http://www.w3.org/1999/xlink" width="64" height="64"><defs><style type="text/css"></style></defs><path d="M509.364987 953.389826c-242.49594 0-439.794491-197.280132-439.794491-439.775049S266.87007 73.839729 509.364987 73.839729c242.476497 0 439.756629 197.280132 439.756629 439.775049S751.841483 953.389826 509.364987 953.389826zM509.364987 111.915929c-221.503836 0-401.717268 180.192965-401.717268 401.698848 0 221.503836 180.213431 401.698848 401.717268 401.698848 221.48644 0 401.679405-180.195012 401.679405-401.698848C911.045415 292.108894 730.85245 111.915929 509.364987 111.915929z" p-id="5470" fill="#8a8a8a"></path><path d="M426.705382 640.578424c-8.31027 0-14.33345-6.54302-14.33345-15.561417L412.371932 402.210501c0-12.027941 11.805884-19.335371 22.588461-13.311167l201.017246 111.701035c5.317099 2.918469 8.403391 7.677866 8.403391 13.014408 0 5.334495-3.086291 10.093892-8.458649 13.031804L434.998255 638.328173C432.263981 639.835504 429.475472 640.578424 426.705382 640.578424zM431.40952 408.698263l0 209.829959 188.764178-104.913445L431.40952 408.698263z" p-id="5471" fill="#8a8a8a"></path></svg>