<?xml version="1.0" standalone="no"?><!DOCTYPE svg PUBLIC "-//W3C//DTD SVG 1.1//EN" "http://www.w3.org/Graphics/SVG/1.1/DTD/svg11.dtd"><svg t="1530093118957" class="icon" style="" viewBox="0 0 1024 1024" version="1.1" xmlns="http://www.w3.org/2000/svg" p-id="10842" xmlns:xlink="http://www.w3.org/1999/xlink" width="64" height="64"><defs><style type="text/css"></style></defs><path d="M138.026667 262.4c-30.933333 12.16-52.693333 43.306667-52.693333 78.933333l0 512c0 47.146667 38.186667 85.333333 85.333333 85.333333l682.666667 0c47.146667 0 85.333333-38.186667 85.333333-85.333333l0-512c0-47.146667-38.186667-85.333333-85.333333-85.333333l-498.986667 0 352.64-142.293333-29.44-71.04-539.52 219.733333zM298.666667 853.333333c-70.613333 0-128-57.386667-128-128s57.386667-128 128-128 128 57.386667 128 128-57.386667 128-128 128zM853.333333 512l-85.333333 0 0-85.333333-85.333333 0 0 85.333333-512 0 0-170.666667 682.666667 0 0 170.666667z" p-id="10843" fill="#ffffff"></path></svg>