<?xml version="1.0" standalone="no"?><!DOCTYPE svg PUBLIC "-//W3C//DTD SVG 1.1//EN" "http://www.w3.org/Graphics/SVG/1.1/DTD/svg11.dtd"><svg t="1530685592048" class="icon" style="" viewBox="0 0 1024 1024" version="1.1" xmlns="http://www.w3.org/2000/svg" p-id="1200" xmlns:xlink="http://www.w3.org/1999/xlink" width="64" height="64"><defs><style type="text/css"></style></defs><path d="M802.578888 675.305335c-55.791146 0-105.770715 26.733258-137.153235 67.414302l-282.442679-163.886493c17.434733-43.005675 17.434733-90.660613 0-133.666288l282.442679-163.886493c31.38252 40.681044 81.362089 67.414302 137.153235 67.414302 96.472191 0 174.347333-77.875142 174.347333-174.347333s-77.875142-174.347333-174.347333-174.347333-174.347333 77.875142-174.347333 174.347333c0 23.246311 4.649262 46.492622 12.785471 66.251986l-282.442679 165.048808c-32.544835-40.681044-81.362089-67.414302-137.153235-67.414302-96.472191 0-174.347333 77.875142-174.347333 174.347333s77.875142 174.347333 174.347333 174.347333c55.791146 0 105.770715-26.733258 137.153235-67.414302l282.442679 163.886493c-8.136209 19.759364-12.785471 43.005675-12.785471 66.251986 0 96.472191 77.875142 174.347333 174.347333 174.347333s174.347333-77.875142 174.347333-174.347333S899.051078 675.305335 802.578888 675.305335zM802.578888 47.654938c70.901249 0 127.854711 56.953462 127.854711 127.854711s-56.953462 127.854711-127.854711 127.854711c-70.901249 0-127.854711-56.953462-127.854711-127.854711S731.677639 47.654938 802.578888 47.654938zM221.421112 640.435868c-70.901249 0-127.854711-56.953462-127.854711-127.854711s56.953462-127.854711 127.854711-127.854711 127.854711 56.953462 127.854711 127.854711S292.322361 640.435868 221.421112 640.435868zM802.578888 977.507378c-70.901249 0-127.854711-56.953462-127.854711-127.854711s56.953462-127.854711 127.854711-127.854711c70.901249 0 127.854711 56.953462 127.854711 127.854711S873.480136 977.507378 802.578888 977.507378z" p-id="1201" fill="#ffffff"></path></svg>