<?xml version="1.0" standalone="no"?><!DOCTYPE svg PUBLIC "-//W3C//DTD SVG 1.1//EN" "http://www.w3.org/Graphics/SVG/1.1/DTD/svg11.dtd"><svg t="1530331881201" class="icon" style="" viewBox="0 0 1024 1024" version="1.1" xmlns="http://www.w3.org/2000/svg" p-id="21193" xmlns:xlink="http://www.w3.org/1999/xlink" width="256" height="256"><defs><style type="text/css"></style></defs><path d="M814.289856 511.998976c0 12.875358-10.437487 23.312845-23.312845 23.312845H233.558481c-12.875358 0-23.312845-10.437487-23.312845-23.312845s10.437487-23.312845 23.312845-23.312845h557.41853c12.874334 0 23.312845 10.438511 23.312845 23.312845z" fill="#9f1d1d" p-id="21194"></path><path d="M512.267234 814.021598c-12.875358 0-23.312845-10.437487-23.312845-23.312845V233.290223c0-12.875358 10.437487-23.312845 23.312845-23.312844s23.312845 10.437487 23.312845 23.312844l0.001024 557.417506c0 12.875358-10.438511 23.313869-23.313869 23.313869z" fill="#9f1d1d" p-id="21195"></path><path d="M678.809349 882.402803H141.865455V141.597197h740.805606v536.721711c0 12.82314 10.395508 23.218648 23.218647 23.218648s23.218648-10.395508 23.218648-23.218648V95.159902H95.42816v833.680196h583.381189c12.82314 0 23.218648-10.395508 23.218648-23.218648s-10.395508-23.218648-23.218648-23.218647z" fill="#9f1d1d" p-id="21196"></path></svg>