<?xml version="1.0" standalone="no"?><!DOCTYPE svg PUBLIC "-//W3C//DTD SVG 1.1//EN" "http://www.w3.org/Graphics/SVG/1.1/DTD/svg11.dtd"><svg t="1530329372200" class="icon" style="" viewBox="0 0 1024 1024" version="1.1" xmlns="http://www.w3.org/2000/svg" p-id="14133" xmlns:xlink="http://www.w3.org/1999/xlink" width="256" height="256"><defs><style type="text/css"></style></defs><path d="M738.781026 843.376223 316.25892 843.376223c-84.850503 0-153.645332-68.793806-153.645332-153.645332L162.613588 305.617559c0-84.850503 68.793806-153.645332 153.645332-153.645332l422.522106 0c84.850503 0 153.645332 68.793806 153.645332 153.645332l0 384.113331C892.426359 774.582417 823.632553 843.376223 738.781026 843.376223L738.781026 843.376223zM843.901179 333.899696c0-73.993225-59.999512-133.992737-133.99683-133.992737l-364.767727 0c-73.993225 0-133.992737 59.999512-133.992737 133.992737l0 327.545988c0 73.997318 59.999512 133.99683 133.992737 133.99683l364.768751 0c73.997318 0 133.99683-59.999512 133.99683-133.99683L843.902202 333.899696 843.901179 333.899696zM431.492408 344.79893l230.469022 152.875806-230.469022 152.874783L431.492408 344.79893 431.492408 344.79893z" p-id="14134" fill="#9f1d1d"></path></svg>